# xmcd
#
# Track frame offsets:
#	150
#	36307
#	54490
#	80272
#	94280
#	112872
#	137180
#	166020
#	193545
#	207380
#
# Disc length: 3028 seconds
# Revision: 0
# Processed by: cddbd v1.5.2PL0 Copyright (c) Steve Scherf et al.
# Submitted via: dBpowerAMP V12.0
#
DISCID=810bd20a
DTITLE=James Blood Ulmer - Odyssey The Band Live in Concert
DYEAR=2010
DGENRE=Blues
TTITLE0=Church
TTITLE1=I Can Tell
TTITLE2=Little Red House
TTITLE3=I Ain't No Hound Dog
TTITLE4=Katrina
TTITLE5=President of Hell
TTITLE6=Where Did All the Girls Come From?
TTITLE7=Survivors of the Hurricane
TTITLE8=Last One
TTITLE9=I Believe in You
EXTD=
EXTT0=
EXTT1=
EXTT2=
EXTT3=
EXTT4=
EXTT5=
EXTT6=
EXTT7=
EXTT8=
EXTT9=
PLAYORDER=
